<svg xmlns="http://www.w3.org/2000/svg" viewBox="0 0 374.74 122.26"><defs><style>.cls-1{fill:#061644;}.cls-2{fill:#da127d;}</style></defs><g id="Layer_2" data-name="Layer 2"><g id="Layer_1-2" data-name="Layer 1"><path class="cls-1" d="M78.23,86.77A47.17,47.17,0,0,1,47.49,98.06a46.24,46.24,0,0,1-12.61-1.7,46.89,46.89,0,0,1-11.33-4.81,49.4,49.4,0,0,1-9.62-7.44,46.64,46.64,0,0,1-7.45-9.63A48.48,48.48,0,0,1,1.7,63.09,47,47,0,0,1,0,50.44,46.36,46.36,0,0,1,1.7,37.86,48.67,48.67,0,0,1,6.48,26.54a46.64,46.64,0,0,1,7.45-9.63A48.12,48.12,0,0,1,23.55,9.5,47.62,47.62,0,0,1,34.88,4.72,46.24,46.24,0,0,1,47.49,3,47.32,47.32,0,0,1,78.23,14.31l-9.62,16A30.87,30.87,0,0,0,59,23.71a28.25,28.25,0,0,0-11.49-2.4,28,28,0,0,0-11.32,2.31,30,30,0,0,0-9.28,6.26,29.51,29.51,0,0,0-6.29,9.24,28,28,0,0,0-2.31,11.32A28.41,28.41,0,0,0,20.6,61.87,29.67,29.67,0,0,0,36.17,77.46a28,28,0,0,0,11.32,2.31,27,27,0,0,0,6.74-.83,31.61,31.61,0,0,0,6.23-2.31V50.44H78.23Z"/><path class="cls-1" d="M117.9,79.26a10,10,0,0,0,2,.42c.68.06,1.37.09,2,.09a17.37,17.37,0,0,0,5-.7,18.13,18.13,0,0,0,4.46-2,16.81,16.81,0,0,0,6.38-7.42l12.84,12.9A34.7,34.7,0,0,1,145,88.76a35.26,35.26,0,0,1-6.86,4.68,34,34,0,0,1-7.77,2.92,35.7,35.7,0,0,1-22-1.7A34.35,34.35,0,0,1,97.2,87.15,35.06,35.06,0,0,1,89.66,75.7,37.71,37.71,0,0,1,86.9,61.1a38.9,38.9,0,0,1,2.76-14.89,33.63,33.63,0,0,1,18.71-18.87A35.47,35.47,0,0,1,122,24.71a34.28,34.28,0,0,1,8.41,1,34.74,34.74,0,0,1,7.8,3,35.41,35.41,0,0,1,12.55,11Zm9-36.13a10.18,10.18,0,0,0-2.41-.58,24.41,24.41,0,0,0-2.47-.13,17.49,17.49,0,0,0-6.77,1.32,16.38,16.38,0,0,0-5.52,3.75A17.87,17.87,0,0,0,106,53.36a21.23,21.23,0,0,0-1.34,7.74c0,.64,0,1.37.09,2.18s.17,1.64.32,2.47a24.31,24.31,0,0,0,.55,2.41,8.87,8.87,0,0,0,.83,2Z"/><path class="cls-1" d="M194,96.08a29.89,29.89,0,0,1-11.93-2.41,31,31,0,0,1-16.4-16.4,29.73,29.73,0,0,1-2.41-11.94V44.93h-8.53V27.47h8.53V0h17.46V27.47H207.3V44.93H180.73v20.4a13.06,13.06,0,0,0,3.85,9.37,13.67,13.67,0,0,0,4.23,2.86,12.86,12.86,0,0,0,5.2,1.06H207.3V96.08Z"/><path class="cls-2" d="M291.56,59.3a36,36,0,0,1-2.88,14.34,36.84,36.84,0,0,1-7.9,11.69,37.55,37.55,0,0,1-11.71,7.86,37,37,0,0,1-28.69,0,36.66,36.66,0,0,1-19.54-19.55A35.78,35.78,0,0,1,218,59.3V4h18.36V59.3a17.73,17.73,0,0,0,1.44,7.12,18.52,18.52,0,0,0,9.82,9.79,18.38,18.38,0,0,0,14.31,0,18.52,18.52,0,0,0,9.82-9.79,17.74,17.74,0,0,0,1.45-7.12V4h18.41Z"/><path class="cls-2" d="M322.05,122.26H304.4V27.34h4.24l7,8.28a46.75,46.75,0,0,1,5.2-4.24A39.93,39.93,0,0,1,326.7,28,35.31,35.31,0,0,1,333,25.67a27,27,0,0,1,6.61-.83,35.69,35.69,0,0,1,13.64,2.6,33.74,33.74,0,0,1,11.17,7.34A34.38,34.38,0,0,1,372,46.24a38.67,38.67,0,0,1,2.76,14.86A40,40,0,0,1,372,76.34a33.82,33.82,0,0,1-7.54,11.49,32.82,32.82,0,0,1-11.17,7.22,37,37,0,0,1-13.64,2.5,20.81,20.81,0,0,1-4.58-.51,31.93,31.93,0,0,1-4.5-1.38c-1.47-.58-2.93-1.23-4.36-2s-2.82-1.48-4.14-2.25Zm35.1-61.16a21,21,0,0,0-1.38-7.83A17.4,17.4,0,0,0,352,47.4a16,16,0,0,0-5.58-3.69,18.09,18.09,0,0,0-6.81-1.29,17.85,17.85,0,0,0-6.77,1.29,16.16,16.16,0,0,0-5.55,3.69,17.4,17.4,0,0,0-3.75,5.87,21,21,0,0,0-1.38,7.83,20.52,20.52,0,0,0,1.38,7.64,17.84,17.84,0,0,0,3.75,5.9,16.87,16.87,0,0,0,5.55,3.79,17.15,17.15,0,0,0,6.77,1.34,17.38,17.38,0,0,0,6.81-1.34A16.68,16.68,0,0,0,352,74.64a17.84,17.84,0,0,0,3.75-5.9A20.52,20.52,0,0,0,357.15,61.1Z"/></g></g></svg>